<svg width="1920" height="1080" viewBox="0 0 1920 1080" fill="none" xmlns="http://www.w3.org/2000/svg">
<g opacity="0.3">
<path opacity="0.2" fill-rule="evenodd" clip-rule="evenodd" d="M0.00887572 0H1920V1042.03C1920 1050.73 1910.39 1031.19 1871.94 883.417C1846.33 784.996 1828.18 804.569 1782 854.359C1741.52 898.015 1679.5 964.899 1572.02 995.852C1465.05 1026.66 1429.43 936.809 1392.69 844.149C1350.41 737.511 1306.65 627.148 1150.98 692.68C1049.6 735.356 969.178 810.18 905.132 869.769C877.707 895.286 853.285 918.009 831.505 934.218C787.372 967.063 754.088 973.163 728.657 921.565C640.335 772.392 575.101 797.708 499.634 826.995C442.04 849.346 378.485 874.01 294.16 825.192C62.9687 691.352 0.858589 904.167 0.00887572 992.232V0Z" fill="url(#paint0_linear_1_105)"/>
<path opacity="0.2" fill-rule="evenodd" clip-rule="evenodd" d="M1920 0H0V913.383C165.533 371.89 255.514 470.034 370.226 595.151C466.02 699.634 579.059 822.928 767.744 608.253C1240.36 70.5302 1787.57 -247.878 1519.47 525.948C1430 784.172 1569.23 999.276 1662.35 784.172C1738.5 608.253 1843.68 547.489 1866.17 682.528C1909.23 941.086 1920 1055.24 1920 1080V0Z" fill="url(#paint1_linear_1_105)"/>
</g>
<defs>
<linearGradient id="paint0_linear_1_105" x1="973.463" y1="182.707" x2="1284.74" y2="848.667" gradientUnits="userSpaceOnUse">
<stop stop-color="#1E1E1E"/>
<stop offset="1" stop-color="#00A254"/>
</linearGradient>
<linearGradient id="paint1_linear_1_105" x1="926.035" y1="-312.924" x2="1078.51" y2="1328.69" gradientUnits="userSpaceOnUse">
<stop stop-color="#01543B"/>
<stop offset="1" stop-color="#00A958"/>
</linearGradient>
</defs>
</svg>
